<svg version="1.1" id="Layer_1" xmlns="http://www.w3.org/2000/svg" xmlns:xlink="http://www.w3.org/1999/xlink" x="0px" y="0px"
	 width="100%" viewBox="0 0 1024 1024" enable-background="new 0 0 1024 1024" xml:space="preserve">
<path fill="#000000" opacity="1.000000" stroke="none" 
	d="
M566.000000,1025.000000 
	C377.333344,1025.000000 189.166672,1025.000000 1.000000,1025.000000 
	C1.000000,683.666687 1.000000,342.333344 1.000000,1.000000 
	C342.333344,1.000000 683.666687,1.000000 1025.000000,1.000000 
	C1025.000000,342.333344 1025.000000,683.666687 1025.000000,1025.000000 
	C872.166687,1025.000000 719.333313,1025.000000 566.000000,1025.000000 
M610.242126,393.235992 
	C593.642090,356.310455 577.018005,319.395691 560.485718,282.439850 
	C559.103638,279.350464 557.426819,277.903107 553.776001,277.934662 
	C532.780396,278.116241 511.781677,278.105011 490.785767,277.938171 
	C487.213715,277.909760 485.312622,279.157867 483.929169,282.321136 
	C480.006409,291.290344 475.859375,300.161316 471.816681,309.078217 
	C414.205383,436.149780 356.595612,563.222107 298.993011,690.297607 
	C297.263855,694.112244 295.617279,697.964355 293.524475,702.726929 
	C296.381744,702.726929 298.167206,702.726624 299.952698,702.726990 
	C324.449280,702.731812 348.946808,702.631287 373.441620,702.841980 
	C377.679260,702.878418 379.536469,701.289734 381.186859,697.589905 
	C388.683197,680.784973 395.871216,663.796265 404.336609,647.478821 
	C424.878418,607.883606 458.173096,587.971191 502.507965,587.187012 
	C537.159302,586.574097 571.830078,587.098633 606.491821,586.980408 
	C609.901367,586.968750 611.657715,587.819946 613.154602,591.178162 
	C629.027405,626.786316 645.190796,662.265015 661.091675,697.860840 
	C662.782288,701.645508 664.893066,702.874634 668.971008,702.843933 
	C693.799622,702.656860 718.630310,702.756042 743.460266,702.731873 
	C745.191223,702.730164 746.921875,702.504333 749.006348,702.357910 
	C748.141235,700.142578 747.605896,698.579102 746.932861,697.077393 
	C738.183411,677.555054 729.424133,658.037048 720.648987,638.526306 
	C683.973938,556.982849 647.292725,475.442169 610.242126,393.235992 
z"/>
<path fill="#F03C30" opacity="1.000000" stroke="none" 
	d="
M610.427979,393.568237 
	C647.292725,475.442169 683.973938,556.982849 720.648987,638.526306 
	C729.424133,658.037048 738.183411,677.555054 746.932861,697.077393 
	C747.605896,698.579102 748.141235,700.142578 749.006348,702.357910 
	C746.921875,702.504333 745.191223,702.730164 743.460266,702.731873 
	C718.630310,702.756042 693.799622,702.656860 668.971008,702.843933 
	C664.893066,702.874634 662.782288,701.645508 661.091675,697.860840 
	C645.190796,662.265015 629.027405,626.786316 613.154602,591.178162 
	C611.657715,587.819946 609.901367,586.968750 606.491821,586.980408 
	C571.830078,587.098633 537.159302,586.574097 502.507965,587.187012 
	C458.173096,587.971191 424.878418,607.883606 404.336609,647.478821 
	C395.871216,663.796265 388.683197,680.784973 381.186859,697.589905 
	C379.536469,701.289734 377.679260,702.878418 373.441620,702.841980 
	C348.946808,702.631287 324.449280,702.731812 299.952698,702.726990 
	C298.167206,702.726624 296.381744,702.726929 293.524475,702.726929 
	C295.617279,697.964355 297.263855,694.112244 298.993011,690.297607 
	C356.595612,563.222107 414.205383,436.149780 471.816681,309.078217 
	C475.859375,300.161316 480.006409,291.290344 483.929169,282.321136 
	C485.312622,279.157867 487.213715,277.909760 490.785767,277.938171 
	C511.781677,278.105011 532.780396,278.116241 553.776001,277.934662 
	C557.426819,277.903107 559.103638,279.350464 560.485718,282.439850 
	C577.018005,319.395691 593.642090,356.310455 610.427979,393.568237 
M514.648254,404.106506 
	C499.098114,438.502716 483.547974,472.898895 467.899353,507.512878 
	C503.876770,507.512878 539.348206,507.512878 575.502686,507.512878 
	C557.510254,467.701538 539.761475,428.429352 521.742981,388.560394 
	C519.236816,394.073181 517.110596,398.750275 514.648254,404.106506 
z"/>
<path fill="#000000" opacity="1.000000" stroke="none" 
	d="
M514.816284,403.766907 
	C517.110596,398.750275 519.236816,394.073181 521.742981,388.560394 
	C539.761475,428.429352 557.510254,467.701538 575.502686,507.512878 
	C539.348206,507.512878 503.876770,507.512878 467.899353,507.512878 
	C483.547974,472.898895 499.098114,438.502716 514.816284,403.766907 
z"/>
</svg>